<svg xmlns="http://www.w3.org/2000/svg" xmlns:xlink="http://www.w3.org/1999/xlink" width="50.927" height="50.934" viewBox="0 0 50.927 50.934"><defs><clipPath id="a"><rect width="50.927" height="50.934" fill="none"/></clipPath><clipPath id="b"><rect width="50.927" height="50.934" fill="#22babb"/></clipPath></defs><g clip-path="url(#a)"><g transform="translate(-1120.036 -4870.055)"><g transform="translate(1219.964 4917.988) rotate(180)"><g transform="translate(49 -3)" clip-path="url(#b)"><path d="M27.765,0a7.272,7.272,0,0,0,1.784.194,38.208,38.208,0,0,1,8,1.457C43.91,3.618,47.846,7.9,49.553,14.276a43.483,43.483,0,0,1,1.325,13.2,40.778,40.778,0,0,1-1.424,9.561,17.229,17.229,0,0,1-6.512,9.648,20.5,20.5,0,0,1-7.874,3.262,46.905,46.905,0,0,1-15.281.635,30.511,30.511,0,0,1-8.5-2.075A16.648,16.648,0,0,1,1.695,37.688,39.477,39.477,0,0,1,.106,28.407c-.01-.148.087-.335-.106-.444V22.988c.193-.109.1-.3.106-.443A40.477,40.477,0,0,1,1.589,13.6,16.751,16.751,0,0,1,11.776,2.232,33.855,33.855,0,0,1,21.4.194,5.233,5.233,0,0,0,22.988,0Z" fill="#22babb"/><path d="M119.782,96.567a.814.814,0,0,1,.665.409.752.752,0,0,1-.016.845,3.063,3.063,0,0,1-.4.439q-5.255,5.258-10.518,10.507c-.3.3-.352.45-.017.783q5.313,5.27,10.592,10.575a4.28,4.28,0,0,1,.344.358.8.8,0,0,1-.062,1.121.788.788,0,0,1-1.083.025,3.492,3.492,0,0,1-.287-.275l-11.391-11.392c-.617-.617-.618-.973-.007-1.584q5.677-5.679,11.355-11.358a1.138,1.138,0,0,1,.826-.451" transform="translate(-92.894 -83.724)" fill="#fff"/><path d="M187.133,121.832a.976.976,0,0,1-.645-.331q-5.82-5.825-11.642-11.649a.833.833,0,0,1,0-1.372q5.766-5.774,11.539-11.541c.457-.456.942-.491,1.3-.109.338.359.289.828-.15,1.267q-5.292,5.3-10.588,10.592c-.477.477-.478.476-.008.945q5.278,5.277,10.556,10.554a1.247,1.247,0,0,1,.48.785.842.842,0,0,1-.843.859" transform="translate(-151.279 -83.725)" fill="#fff"/></g></g></g></g></svg>