<svg xmlns="http://www.w3.org/2000/svg" xmlns:xlink="http://www.w3.org/1999/xlink" width="31.914" height="35.476" viewBox="0 0 31.914 35.476"><defs><clipPath id="a"><rect width="31.914" height="35.476" fill="none"/></clipPath></defs><g clip-path="url(#a)"><g transform="translate(452.701 -273.36)"><path d="M-422.961,308.835h-27.711c-.02-.025-.035-.062-.061-.072a2.619,2.619,0,0,1-1.969-2.914q0-13.573,0-27.146c0-.173,0-.346.009-.519a2.574,2.574,0,0,1,2.19-2.4,15.752,15.752,0,0,1,1.728-.046c.285-.012.641.118.834-.053.164-.145.036-.5.05-.763a1.6,1.6,0,0,1,1.415-1.544,1.664,1.664,0,0,1,1.927,1.145,2.243,2.243,0,0,1,.05.824c-.025.311.066.4.39.4q7.168-.017,14.335-.008c.752,0,.752,0,.769-.767,0-.012,0-.023,0-.035a1.581,1.581,0,0,1,1.424-1.561,1.643,1.643,0,0,1,1.941,1.3,2.94,2.94,0,0,1,.028.759c-.015.235.043.318.3.309.611-.02,1.223-.008,1.835-.006a2.6,2.6,0,0,1,1.143.232,2.635,2.635,0,0,1,1.548,2.592q-.012,13.729,0,27.457c0,.15,0,.3-.013.45a2.566,2.566,0,0,1-2.022,2.3C-422.88,308.775-422.946,308.755-422.961,308.835Zm-10.032-25.67h10.84c.167,0,.331.051.328-.243-.016-1.524,0-3.048-.012-4.571a1.515,1.515,0,0,0-1.515-1.565c-1.466-.027-2.932-.006-4.4-.013-.169,0-.22.053-.216.218.01.381,0,.762,0,1.143,0,.512.088.615.588.717a.528.528,0,0,1,.464.555.525.525,0,0,1-.571.478,1.555,1.555,0,0,1-1.51-1.432,10.162,10.162,0,0,1,0-1.246c.023-.337-.059-.441-.424-.44q-8.5.021-17.005.01a1.318,1.318,0,0,1-.173,0c-.194-.026-.263.048-.256.248.014.392,0,.785.005,1.177.006.415.148.573.56.647a.521.521,0,0,1,.493.59.516.516,0,0,1-.6.445,1.581,1.581,0,0,1-1.5-1.566c-.014-.427-.016-.855,0-1.281.009-.222-.069-.269-.276-.265-.6.014-1.2,0-1.8.005a1.57,1.57,0,0,0-1.7,1.7c0,1.454.005,2.909-.007,4.363,0,.252.052.33.318.328,1.685-.013,3.371-.008,5.056-.005a1.5,1.5,0,0,1,.411.037.463.463,0,0,1,.348.5.461.461,0,0,1-.34.468,1.424,1.424,0,0,1-.411.037c-1.685,0-3.371.007-5.057,0-.258,0-.325.062-.325.323q.012,9.766.008,19.532a1.549,1.549,0,0,0,1.666,1.663q9.992,0,19.984,0a1.192,1.192,0,0,0,1.3-1.317c0-1.05,0-2.1,0-3.151a2.228,2.228,0,0,1,2.387-2.405c1,0,2.009,0,3.013,0,1.055,0,1.476-.414,1.476-1.457,0-4.26,0-8.519.009-12.779,0-.34-.089-.409-.417-.409q-10.684.015-21.369.008c-.625,0-.885-.157-.878-.529s.264-.512.861-.512Zm-18.632,23.1a.682.682,0,0,0,.021.4,1.582,1.582,0,0,0,1.663,1.13h26.389a1.561,1.561,0,0,0,1.719-1.713q0-2.563,0-5.125a.344.344,0,0,0-.091-.313,2.065,2.065,0,0,1-.188.261c-1.622,1.626-3.258,3.24-4.866,4.88a3.091,3.091,0,0,1-2.342.98q-10.112-.021-20.225,0A3.261,3.261,0,0,1-451.625,306.264Zm23.925-1.43,4.952-4.947c-1.2,0-2.487-.012-3.776,0a1.15,1.15,0,0,0-1.143,1.221c-.006,1.05,0,2.1,0,3.151A1.838,1.838,0,0,1-427.7,304.834Zm-18.492-29.1c.671,0,.671,0,.661-.658-.007-.474-.188-.665-.633-.67-.472,0-.675.191-.686.661C-446.864,275.736-446.864,275.736-446.191,275.736Zm18.871,0c.688,0,.688,0,.677-.648-.008-.48-.2-.68-.667-.68s-.646.19-.652.685C-427.97,275.736-427.97,275.736-427.321,275.736Zm4.763,24.128c-.008-.008-.015-.021-.023-.022s-.016.013-.025.02l.035.024Z" transform="translate(0)" fill="#22babb"/><path d="M-127.589,559.423l-.013.022-.035-.024c.008-.007.017-.02.025-.02S-127.6,559.415-127.589,559.423Z" transform="translate(-294.969 -259.559)" fill="#22babb"/><path d="M-262.179,415.094c0,.4.009.807,0,1.21a1,1,0,0,1-1.04,1.051q-1.21.023-2.421,0a.984.984,0,0,1-1.033-1.022q-.034-1.227,0-2.455a.981.981,0,0,1,1.039-1.017q1.21-.028,2.421,0a.992.992,0,0,1,1.034,1.056C-262.171,414.31-262.179,414.7-262.179,415.094Zm-3.463.018c0,.323.008.646,0,.969-.006.177.047.244.233.242.658-.009,1.315-.008,1.973,0,.159,0,.225-.04.222-.212q-.012-1,0-2.008c0-.178-.077-.209-.231-.208-.658.005-1.315.009-1.973,0-.2,0-.228.084-.224.25C-265.636,414.465-265.642,414.788-265.642,415.111Z" transform="translate(-168.787 -126.573)" fill="#22babb"/><path d="M-342.838,415.078c0-.38-.009-.761,0-1.141a1,1,0,0,1,1.052-1.076q1.193-.027,2.386,0a1,1,0,0,1,1.062,1.069q.02,1.176,0,2.352a1.01,1.01,0,0,1-1.089,1.077q-1.159.016-2.317,0a1.012,1.012,0,0,1-1.094-1.1C-342.845,415.862-342.838,415.47-342.838,415.078Zm1.041.029c0,.323.007.646,0,.969,0,.166.026.251.222.247.658-.011,1.315-.01,1.973,0,.186,0,.235-.066.233-.242-.008-.646-.007-1.292,0-1.938,0-.166-.028-.253-.224-.25q-.986.016-1.973,0c-.19,0-.236.071-.23.244C-341.789,414.461-341.8,414.784-341.8,415.107Z" transform="translate(-99.689 -126.574)" fill="#22babb"/><path d="M-185.882,415.142c0,.4.008.807,0,1.211a.979.979,0,0,1-.993,1.022q-1.262.03-2.525,0a.927.927,0,0,1-.958-.9c-.037-.885-.037-1.775,0-2.66a.922.922,0,0,1,.948-.914c.852-.027,1.706-.029,2.558,0a.97.97,0,0,1,.973,1.039C-185.874,414.335-185.882,414.738-185.882,415.142Zm-1.04.028c0-.345-.007-.69,0-1.035,0-.164-.051-.22-.217-.218q-1,.011-2,0c-.174,0-.211.071-.209.228.006.656.008,1.311,0,1.967,0,.186.065.235.241.233.656-.008,1.312-.01,1.967,0,.2,0,.227-.077.222-.244C-186.93,415.791-186.922,415.48-186.922,415.17Z" transform="translate(-238.027 -126.596)" fill="#22babb"/><path d="M-185.936,486.206c0,.392.006.784,0,1.176a.992.992,0,0,1-1.025,1.064q-1.227.026-2.456,0a.963.963,0,0,1-1.008-.972c-.03-.852-.03-1.706,0-2.558a.95.95,0,0,1,.985-.957c.841-.024,1.684-.026,2.524,0a.971.971,0,0,1,.977,1.036C-185.929,485.4-185.936,485.8-185.936,486.206Zm-3.463-.044c0,.334.006.667,0,1,0,.164.025.254.222.251.667-.009,1.334-.006,2,0,.141,0,.206-.032.2-.19q-.01-1.018,0-2.036c0-.149-.049-.2-.2-.2-.667.005-1.335.008-2,0-.19,0-.233.074-.227.245C-189.392,485.54-189.4,485.851-189.4,486.162Z" transform="translate(-237.973 -191.084)" fill="#22babb"/><path d="M-419.061,415.14c0-.415-.012-.83,0-1.245a.953.953,0,0,1,.949-.988c.863-.029,1.729-.029,2.593,0a.96.96,0,0,1,.95.994c.021.83.022,1.66,0,2.49a.984.984,0,0,1-1.025,1q-1.227.025-2.456,0a.984.984,0,0,1-1.014-1.038c-.011-.4,0-.807,0-1.21Zm3.461.009c0-.334-.007-.667,0-1,.005-.166-.055-.221-.218-.219-.667.006-1.335.007-2,0-.176,0-.209.073-.208.227q.009,1,0,2c0,.147.042.2.2.2.667-.007,1.334-.008,2,0,.186,0,.238-.067.232-.242C-415.608,415.794-415.6,415.471-415.6,415.149Z" transform="translate(-30.52 -126.609)" fill="#22babb"/><path d="M-340.578,486.716c-.415,0-.83.006-1.245,0a.957.957,0,0,1-1-.94c-.026-.864-.026-1.729,0-2.593a.959.959,0,0,1,.983-.96c.83-.024,1.661-.023,2.49,0a.99.99,0,0,1,1.011,1.014q.031,1.227,0,2.456a1,1,0,0,1-1.065,1.025C-339.794,486.72-340.186,486.716-340.578,486.716Zm-1.217-2.226c0,.323.007.646,0,.968,0,.156.027.225.206.222.668-.011,1.337-.009,2.005,0,.165,0,.219-.048.217-.215q-.012-1,0-2.005c0-.174-.07-.21-.227-.208-.657.007-1.314.009-1.971,0-.187,0-.237.064-.231.239C-341.787,483.821-341.795,484.156-341.795,484.49Z" transform="translate(-99.69 -189.509)" fill="#22babb"/><path d="M-264.345,486.718c-.4,0-.807,0-1.211,0a.951.951,0,0,1-1.021-.912c-.035-.886-.034-1.775,0-2.661a.948.948,0,0,1,.983-.922q1.244-.033,2.49,0a.986.986,0,0,1,1,1.02q.024,1.227,0,2.456a.99.99,0,0,1-1.067,1.02C-263.561,486.721-263.953,486.718-264.345,486.718Zm-.034-1.041c.334,0,.669-.007,1,0,.165,0,.246-.023.242-.22-.013-.657-.01-1.314,0-1.97,0-.175-.043-.242-.231-.239-.657.01-1.314.008-1.971,0-.157,0-.229.034-.227.208q.011,1,0,2.005c0,.167.052.221.217.215C-265.025,485.67-264.7,485.677-264.379,485.677Z" transform="translate(-168.869 -189.511)" fill="#22babb"/><path d="M-340.639,556.252c-.381,0-.761,0-1.142,0a.992.992,0,0,1-1.077-1.011q-.031-1.245,0-2.49a.982.982,0,0,1,1.052-1q1.194-.011,2.387,0a1,1,0,0,1,1.048,1.01c.021.83.022,1.661,0,2.49a1,1,0,0,1-1.058,1C-339.831,556.257-340.235,556.252-340.639,556.252Zm-1.186-2.36c0,.421.009.767,0,1.112-.006.169.048.214.213.212q1-.013,2,0c.169,0,.216-.052.214-.216q-.012-1,0-2c0-.171-.057-.216-.219-.211-.345.01-.691,0-1.036,0-.378,0-.888-.132-1.1.059C-341.992,553.065-341.794,553.583-341.825,553.893Z" transform="translate(-99.661 -252.612)" fill="#22babb"/><path d="M-416.879,486.721c-.392,0-.784.005-1.176,0a.974.974,0,0,1-1.02-.991q-.026-1.245,0-2.49a.979.979,0,0,1,1-1.013c.818-.021,1.637-.02,2.455,0a1,1,0,0,1,1.032,1.033q.027,1.21,0,2.421a1.008,1.008,0,0,1-1.086,1.042C-416.072,486.723-416.476,486.721-416.879,486.721Zm.028-1.04c.335,0,.669-.009,1,0,.184.007.235-.057.232-.237q-.014-.968,0-1.937c0-.19-.046-.262-.249-.258q-.968.018-1.937,0c-.208,0-.247.074-.245.26q.014.969,0,1.937c0,.176.039.245.227.236C-417.5,485.67-417.174,485.681-416.851,485.681Z" transform="translate(-30.501 -189.514)" fill="#22babb"/><path d="M-419.055,553.965c0-.392-.009-.784,0-1.176A1,1,0,0,1-418,551.75q1.193-.013,2.387,0a1.009,1.009,0,0,1,1.059,1.038q.025,1.21,0,2.421a1.018,1.018,0,0,1-1.092,1.041q-1.159.006-2.318,0a1.009,1.009,0,0,1-1.087-1.074C-419.063,554.773-419.055,554.369-419.055,553.965Zm1.039-.073c0,.421.009.767,0,1.112-.006.169.052.212.215.21q1-.012,2,0c.169,0,.215-.054.213-.217q-.012-1,0-2c0-.174-.061-.214-.221-.21-.345.01-.691,0-1.036,0-.378,0-.889-.132-1.1.06C-418.182,553.065-417.986,553.583-418.016,553.893Z" transform="translate(-30.528 -252.611)" fill="#22babb"/><path d="M-264.472,556.245c-.415,0-.831.01-1.246,0a1.008,1.008,0,0,1-.991-.96.492.492,0,0,1,.376-.548.461.461,0,0,1,.6.282c.063.178.152.192.3.191.646,0,1.292-.009,1.938,0,.2,0,.253-.049.249-.248q-.019-.968,0-1.938c0-.2-.056-.251-.25-.247q-.969.017-1.938,0c-.2,0-.261.061-.244.253a2.534,2.534,0,0,1-.007.483.47.47,0,0,1-.5.464.457.457,0,0,1-.5-.422,3.084,3.084,0,0,1,.024-1.067.976.976,0,0,1,.933-.74c.853-.013,1.707-.017,2.561,0a.951.951,0,0,1,.949.918q.04,1.314,0,2.629a.976.976,0,0,1-1,.946C-263.641,556.253-264.057,556.245-264.472,556.245Z" transform="translate(-168.751 -252.605)" fill="#22babb"/></g></g></svg>