<svg xmlns="http://www.w3.org/2000/svg" xmlns:xlink="http://www.w3.org/1999/xlink" width="34.288" height="22.872" viewBox="0 0 34.288 22.872"><defs><clipPath id="a"><rect width="34.288" height="22.872" fill="none"/></clipPath></defs><g clip-path="url(#a)"><g transform="translate(-1220.999 -1139)"><path d="M2179.709,84.518c-.08.167-.147.341-.241.5a1.749,1.749,0,0,1-1.483.887c-.078.005-.156,0-.234,0h-30.368a1.791,1.791,0,0,1-1.93-1.444,2.389,2.389,0,0,1-.031-.466q0-9.526,0-19.051a1.773,1.773,0,0,1,1.9-1.909q15.251,0,30.5,0a1.832,1.832,0,0,1,1.891,1.456Zm-1.335-19.311c-.145.106-.243.176-.34.249q-6.745,5.058-13.488,10.116a3.122,3.122,0,0,1-3.926.024l-12.871-9.653c-.317-.238-.635-.474-.971-.725V83.591l5.8-7.167,1.536-1.9a.65.65,0,0,1,.716-.242.626.626,0,0,1,.472.55.8.8,0,0,1-.248.631q-3.55,4.381-7.1,8.765c-.086.106-.17.214-.274.344h29.76c-.4-.5-.774-.96-1.149-1.423q-3.116-3.85-6.233-7.7a.769.769,0,0,1-.237-.633.627.627,0,0,1,.485-.539.725.725,0,0,1,.775.334q3.542,4.387,7.1,8.765c.049.06.071.167.189.158Zm-30.506-.83c.171.131.293.225.416.317l13.054,9.791a1.824,1.824,0,0,0,2.444.01l11.154-8.364,2.335-1.754Z" transform="translate(-924.422 1075.963)" fill="#22babb"/></g></g></svg>