<svg xmlns="http://www.w3.org/2000/svg" xmlns:xlink="http://www.w3.org/1999/xlink" width="118.395" height="126.883" viewBox="0 0 118.395 126.883"><defs><clipPath id="clip-path"><rect width="118.395" height="126.883" fill="none"></rect></clipPath><clipPath id="clip-path-2"><rect id="Rectangle_268" data-name="Rectangle 268" width="118.395" height="126.883" fill="#fff"></rect></clipPath></defs><g id="Grille_de_r&#xE9;p&#xE9;tition_12" data-name="Grille de r&#xE9;p&#xE9;tition 12" clip-path="url(#clip-path)"><g id="Groupe_314" data-name="Groupe 314" clip-path="url(#clip-path-2)"><path id="Trac&#xE9;_482" data-name="Trac&#xE9; 482" d="M52.754,126.88q-20.681,0-41.361,0C4.429,126.878,0,122.463,0,115.515q0-26.69,0-53.381c0-6.963,4.413-11.372,11.377-11.376,1.454,0,2.913-.076,4.359.026,1.022.072,1.207-.269,1.2-1.23-.038-10.042-.023-20.084-.023-30.126,0-2.907-.019-5.814,0-8.721A10.534,10.534,0,0,1,27.653.02C42.938,0,58.223.017,73.507,0a3.092,3.092,0,0,1,2.35.959Q83.971,9.1,92.118,17.214a3.23,3.23,0,0,1,.94,2.492c-.02,9.91.007,19.82-.041,29.729-.006,1.1.25,1.367,1.351,1.353,5.152-.066,10.306-.047,15.46-.024a8.427,8.427,0,0,1,8.467,7.053,5.982,5.982,0,0,1-.067,2.479q-6.172,27.728-12.3,55.467c-.236,1.07-.289,2.183-.566,3.24a10.539,10.539,0,0,1-10.454,7.871q-21.077.023-42.153.005m-.02-4.23q20.813,0,41.626,0c4.592,0,7.142-2.522,7.142-7.069q0-20.415,0-40.829c0-4.554-2.544-7.074-7.135-7.074q-25.57,0-51.141.022a4.032,4.032,0,0,1-3.136-1.317C36.64,62.857,33.114,59.4,29.653,55.89a2.739,2.739,0,0,0-2.167-.924c-5.373.047-10.747.022-16.121.024-4.59,0-7.132,2.521-7.133,7.075q0,26.691,0,53.382c0,4.734,2.493,7.2,7.273,7.2H52.734m13.127-59.2q10.9,0,21.807,0c.576,0,1.174.222,1.171-.837q-.055-20.285,0-40.571c0-.824-.315-.905-1-.892-1.893.037-3.789.047-5.682,0A10.505,10.505,0,0,1,72.122,12.6c-.464-2.446-.153-4.921-.207-7.381-.014-.672-.063-1-.892-1-14.538.028-29.076,0-43.614.035a6.226,6.226,0,0,0-6.244,6.217c-.034,13.127-.008,26.254-.035,39.381,0,.783.257.932.969.918,2.246-.042,4.495.029,6.74-.034a3.526,3.526,0,0,1,2.806,1.151c3.555,3.608,7.168,7.16,10.724,10.768a2.461,2.461,0,0,0,1.95.8c7.181-.031,14.362-.018,21.542-.018m39.873,32.576.165.02c.095-.32.209-.637.282-.962q3.884-17.5,7.757-35a3.978,3.978,0,0,0-3.846-5.068c-5.417-.065-10.834-.011-16.251-.036-.635,0-.821.173-.809.809.039,2.069.093,4.144-.016,6.208-.064,1.209.3,1.493,1.488,1.484,6.771-.051,11.223,4.441,11.229,11.229q.007,7.927,0,15.854ZM85.2,16.895,76.134,7.823c-.71,7.256,3.047,9.761,9.069,9.072" transform="translate(0 0)" fill="#fff"></path><path id="Trac&#xE9;_483" data-name="Trac&#xE9; 483" d="M109.139,83.779c8.017,0,16.034.028,24.051-.031,1.147-.008,1.351.327,1.324,1.382-.075,2.878-.024,2.879-2.965,2.879q-23.192,0-46.384.022c-1.064,0-1.519-.115-1.467-1.373.118-2.874.035-2.878,2.976-2.878Z" transform="translate(-54.129 -54.164)" fill="#fff"></path><path id="Trac&#xE9;_484" data-name="Trac&#xE9; 484" d="M109.137,111.958c-8.061,0-16.122-.019-24.183.025-.982.005-1.241-.219-1.221-1.214.061-3.039.013-3.04,3.069-3.04q23.192,0,46.384-.028c1.093,0,1.388.242,1.356,1.349-.085,2.905-.026,2.907-2.94,2.907Z" transform="translate(-54.154 -69.657)" fill="#fff"></path><path id="Trac&#xE9;_485" data-name="Trac&#xE9; 485" d="M102.66,40.128c-5.9,0-11.805-.026-17.707.026-.986.008-1.24-.224-1.22-1.217.061-3.038.013-3.038,3.07-3.038,11.232,0,22.464.017,33.7-.029,1.1,0,1.386.247,1.354,1.351-.084,2.9-.026,2.906-2.94,2.906Z" transform="translate(-54.154 -23.2)" fill="#fff"></path><path id="Trac&#xE9;_486" data-name="Trac&#xE9; 486" d="M102.66,64.071c-5.9,0-11.805-.026-17.707.026-.985.008-1.24-.223-1.22-1.216.061-3.038.013-3.039,3.07-3.039,11.232,0,22.464.018,33.7-.028,1.1,0,1.387.246,1.355,1.351-.084,2.9-.026,2.906-2.94,2.906Z" transform="translate(-54.154 -38.685)" fill="#fff"></path></g></g></svg>