<svg xmlns="http://www.w3.org/2000/svg" xmlns:xlink="http://www.w3.org/1999/xlink" width="105.25" height="126.883" viewBox="0 0 105.25 126.883"><defs><clipPath id="clip-path"><rect width="105.25" height="126.883" fill="none"></rect></clipPath><clipPath id="clip-path-2"><rect id="Rectangle_266" data-name="Rectangle 266" width="105.25" height="126.883" fill="#22babb"></rect></clipPath></defs><g id="Grille_de_r&#xE9;p&#xE9;tition_13" data-name="Grille de r&#xE9;p&#xE9;tition 13" clip-path="url(#clip-path)"><g id="Groupe_311" data-name="Groupe 311" transform="translate(0 0)"><g id="Groupe_310" data-name="Groupe 310" transform="translate(0 0)" clip-path="url(#clip-path-2)"><path id="Trac&#xE9;_475" data-name="Trac&#xE9; 475" d="M2.317,126.883A3.664,3.664,0,0,1,.008,122.95c.108-2.1.018-4.211.026-6.317.011-2.583,1.1-3.657,3.714-3.658q27.568,0,55.137.027c1.169,0,1.57-.226,1.486-1.456a49.142,49.142,0,0,1-.009-5.324c.034-.856-.277-1-1.046-.994q-10.965.04-21.931.009a6.882,6.882,0,0,1-1.715-.165,2.252,2.252,0,0,1-1.609-2.359,2.313,2.313,0,0,1,1.963-2.087,9.447,9.447,0,0,1,1.237-.029c7.311,0,14.621-.017,21.931.02.89,0,1.229-.156,1.173-1.128-.092-1.605-.049-3.22-.019-4.83a3.107,3.107,0,0,1,3.316-3.363q6.752-.065,13.505,0c2.1.02,3.248,1.24,3.288,3.361.031,1.651.037,3.3-.006,4.955-.019.7.092,1.016.921,1.006,4.047-.047,8.095-.026,12.142-.014.548,0,.924,0,.916-.753-.1-10.034.308-20.077-.18-30.1-.612-12.6-10.57-23.644-22.975-25.881-3.182-.574-3.182-.574-3.183,2.612,0,6.319-.031,12.637.017,18.955.016,2.063-.415,3.711-2.73,4.171-.526.1-.358.473-.361.758-.014,1.693,0,3.387-.01,5.08-.02,2.187-1.153,3.461-3.321,3.432-1.217-.017-1.446.424-1.361,1.477.08.985.031,1.981.014,2.972-.036,1.984-1.127,3.265-3.071,3.319q-4.643.128-9.291,0c-1.948-.054-3.036-1.332-3.068-3.32-.019-1.156-.034-2.314.008-3.469.024-.653-.107-.929-.86-.958-2.947-.11-3.818-1.078-3.819-4.075,0-1.487-.017-2.974.01-4.46.009-.479-.1-.664-.617-.816a3,3,0,0,1-2.464-3.368q-.018-21.31,0-42.619c0-2.247,1.229-3.422,3.459-3.447,1.157-.013,2.314-.038,3.469.011.666.028.835-.209.823-.848q-.057-3.034,0-6.07c.014-.659-.2-.813-.835-.832-2.926-.085-3.846-1.078-3.847-4.043,0-1.652-.016-3.3,0-4.956A3.1,3.1,0,0,1,43.535.015q9.107-.029,18.214,0A3.074,3.074,0,0,1,65,3.288c.03,1.9.023,3.8,0,5.7-.023,2.142-1.254,3.455-3.384,3.367-1.179-.048-1.346.373-1.3,1.387a51.4,51.4,0,0,1,0,5.2c-.058,1.033.322,1.254,1.247,1.185.986-.073,1.981-.023,2.972-.015,2.313.019,3.533,1.184,3.545,3.488.026,4.667.041,9.334-.016,14-.012.992.321,1.238,1.242,1.313C83.449,40.054,96.111,51.755,98.48,65.8a39.712,39.712,0,0,1,.548,6.652q-.012,14.248,0,28.5c0,3.372-.935,4.293-4.362,4.293-4.378,0-8.756.024-13.134-.02-.878-.009-1.116.253-1.087,1.11.063,1.856.067,3.718,0,5.574-.032.887.264,1.089,1.112,1.085,6.567-.033,13.134-.02,19.7-.018,2.957,0,3.956.988,3.961,3.909,0,2.024-.08,4.051.024,6.07a3.673,3.673,0,0,1-2.307,3.93ZM41.773,44.811c0,6.36.016,12.72-.019,19.08,0,.851.2,1.111,1.082,1.106q9.788-.057,19.577,0c.882,0,1.084-.255,1.082-1.106q-.041-19.018,0-38.036c0-.86-.207-1.1-1.083-1.1q-9.788.058-19.577,0c-.875,0-1.089.234-1.083,1.1.037,6.319.02,12.637.02,18.956M52.63,122.218q22.423,0,44.847-.011c1.019,0,2.373.462,2.964-.216.5-.571.058-1.9.183-2.872.166-1.281-.313-1.541-1.546-1.54q-45.528.056-91.056.041c-1.1,0-2.557-.5-3.188.249-.537.638-.088,2.054-.205,3.112-.12,1.079.3,1.261,1.3,1.259q23.352-.049,46.7-.023M75.855,104.48c0-2.556-.024-5.111.015-7.666.011-.706-.2-.91-.9-.9q-4.575.054-9.151,0c-.667-.008-.82.2-.817.837q.035,7.667,0,15.333c0,.679.154.918.878.909q4.513-.061,9.027,0c.762.011.986-.2.971-.969-.047-2.513-.018-5.028-.018-7.543M52.73,74.3c2.269,0,4.538-.013,6.807.009.543.005.841-.083.816-.728-.043-1.112-.034-2.228,0-3.34.015-.51-.2-.611-.653-.61q-7.055.018-14.109,0c-.545,0-.711.164-.692.7.038,1.03.053,2.064,0,3.093-.039.712.209.907.905.895,2.31-.04,4.62-.015,6.931-.015m-.1-66.583h5.82c1.908,0,1.84,0,1.924-1.955.043-.994-.317-1.12-1.182-1.111-4.086.044-8.173.02-12.259.02-2.052,0-2,0-2.044,2.081-.019.872.3.995,1.055.98,2.228-.043,4.458-.015,6.687-.015m-3.09,8.313c0,1.239.026,2.271-.011,3.3-.02.564.107.808.742.79,1.567-.045,3.136-.043,4.7,0,.615.017.771-.19.757-.776-.036-1.526-.012-3.053-.012-4.579,0-2.377,0-2.385-2.341-2.374-1.232.006-2.88-.426-3.587.2-.806.708-.138,2.395-.252,3.443M52.62,82.021h.988c2.208,0,2.172,0,2.131-2.244-.014-.744-.286-.892-.948-.871a33.175,33.175,0,0,1-3.947-.015c-1.141-.1-1.387.31-1.335,1.37.087,1.756.022,1.759,1.753,1.759H52.62" transform="translate(0 0)" fill="#22babb"></path></g></g></g></svg>