<svg xmlns="http://www.w3.org/2000/svg" xmlns:xlink="http://www.w3.org/1999/xlink" width="1408.51" height="1271.686" viewBox="0 0 1408.51 1271.686"><defs><clipPath id="clip-path"><rect width="1408.51" height="1271.686" fill="none"></rect></clipPath></defs><g id="Grille_de_r&#xE9;p&#xE9;tition_5" data-name="Grille de r&#xE9;p&#xE9;tition 5" clip-path="url(#clip-path)"><g transform="translate(227.294 -2016.672)"><g id="Grille_de_r&#xE9;p&#xE9;tition_1" data-name="Grille de r&#xE9;p&#xE9;tition 1" transform="translate(-227.294 2016.672)" clip-path="url(#clip-path)"><g id="Groupe_326" data-name="Groupe 326" transform="translate(388.294 -1490.229)"><path id="Vector" d="M717.487,5.132C844.4,15.491,964.718,59.108,1070.1,130.586c103.534,70.227,184.583,165.939,241.346,277.425,58.6,115.1,118.537,243.819,87.932,369.3C1369.347,900.42,1245,969.464,1153.2,1056.814c-82.627,78.619-154.129,176.723-264.3,206.21-109.207,29.228-217.085-30.624-328.875-47.454-133.173-20.049-284.655,21.536-391.118-60.942C59.027,1069.509,10.051,920.992.769,782.316-8.2,648.384,63.061,527.962,118.779,405.841c55.738-122.165,95.468-261.316,207.059-336C438.075-5.281,582.88-5.855,717.487,5.132Z" transform="translate(-387.824 1490.557)" fill="none" stroke="#2c3359" stroke-width="1" opacity="0.11"></path><path id="Vector-2" data-name="Vector" d="M538.116,3.842C633.3,11.6,723.539,44.252,802.573,97.766,880.223,150.343,941.01,222,983.582,305.465c43.951,86.169,88.9,182.54,65.949,276.481C1027.01,674.117,933.75,725.808,864.9,791.2c-61.971,58.859-115.6,132.307-198.228,154.383-81.9,21.882-162.814-22.927-246.656-35.528-99.88-15.01-213.491,16.123-293.339-45.625C44.27,800.708,7.538,689.518.577,585.7-6.147,485.425,47.3,395.268,89.084,303.84c41.8-91.461,71.6-195.639,155.294-251.555C328.556-3.954,437.16-4.384,538.116,3.842Z" transform="translate(-211.867 1602.271)" fill="none" stroke="#2c3359" stroke-width="1" opacity="0.11"></path></g></g><g id="Rectangle_271" data-name="Rectangle 271" transform="translate(803 2381)" fill="none" stroke="#2c3359" stroke-width="2"><rect width="315" height="50" rx="25" stroke="none"></rect><rect x="1" y="1" width="313" height="48" rx="24" fill="none"></rect></g></g></g></svg>