<svg xmlns="http://www.w3.org/2000/svg" xmlns:xlink="http://www.w3.org/1999/xlink" width="36.572" height="36.572" viewBox="0 0 36.572 36.572"><defs><clipPath id="a"><rect width="36.572" height="36.572" fill="none"/></clipPath></defs><g clip-path="url(#a)"><g transform="translate(1687.52 944.463)"><path d="M998.766,35.922a12.125,12.125,0,0,0,.707-1.573,5.107,5.107,0,0,1,.234-.518.521.521,0,0,1,.943.425c-.161.455-.35.9-.539,1.377h3.456c.1,0,.191,0,.217-.126a.77.77,0,0,1,.055-.131l1.779-4.309c-1.191,0-2.34,0-3.489,0-.142,0-.179.081-.22.184-.124.308-.247.617-.376.922-.166.393-.437.549-.735.431-.326-.129-.422-.426-.253-.838q1.449-3.52,2.9-7.038l.517-1.249c.235-.569.3-.613.93-.613h4.917c-.13-.188-.227-.329-.326-.469a23.265,23.265,0,0,1-3.247-6.266A12.7,12.7,0,0,1,1006,8.447a11.377,11.377,0,0,1,4.707-6.377,11.43,11.43,0,0,1,13.719.775,11.442,11.442,0,0,1,3.531,5.174,12.2,12.2,0,0,1,.268,6.751,21.462,21.462,0,0,1-3.4,7.316c-.165.242-.336.48-.546.779h.4c1.535,0,3.07.008,4.6-.005a.766.766,0,0,1,.819.529q2.538,6.188,5.1,12.368c.218.529.158.709-.3.952q-17.869,0-35.738.009c-.336,0-.459-.065-.4-.4a2.187,2.187,0,0,0,0-.392m28.74-24.141a10.654,10.654,0,0,0-1.052-4.612A10.4,10.4,0,0,0,1013.4,1.89a10.57,10.57,0,0,0-6.611,12.057,18.323,18.323,0,0,0,2.3,5.868,37,37,0,0,0,7.745,8.985c.192.168.29.1.439-.027a40.907,40.907,0,0,0,3.152-3,30.768,30.768,0,0,0,5.087-6.891,15.585,15.585,0,0,0,1.989-7.1m4.154,18.212c-.122-.3-.219-.535-.32-.773-.138-.326-.175-.782-.446-.939s-.693-.051-1.049-.054c-.726,0-1.452,0-2.177-.009a.481.481,0,0,1-.512-.487.492.492,0,0,1,.439-.555,1.867,1.867,0,0,1,.354-.025c.832,0,1.664,0,2.541,0-.435-1.049-.859-2.064-1.274-3.082-.072-.176-.208-.125-.329-.126-1.726,0-3.451,0-5.177-.006a.486.486,0,0,0-.421.2c-.791.968-1.615,1.906-2.489,2.8-.048.05-.156.087-.093.212h4.56a1.19,1.19,0,0,1,.457.054.491.491,0,0,1,.331.532.476.476,0,0,1-.408.47,2.019,2.019,0,0,1-.391.02c-1.821,0-3.641,0-5.462,0a.685.685,0,0,0-.507.19q-.845.768-1.715,1.509c-.442.378-.6.374-1.051,0a39.732,39.732,0,0,1-5.479-5.51,1.094,1.094,0,0,0-1.045-.483.379.379,0,0,0-.386.267c-.47,1.166-.963,2.323-1.429,3.49a.751.751,0,0,1-.8.545c-1.309-.02-2.618,0-3.927-.013a.364.364,0,0,0-.412.282c-.139.39-.3.774-.478,1.149-.123.262-.11.354.221.348,1.13-.019,2.261-.008,3.391-.007.7,0,.915.325.644.982-.244.592-.492,1.182-.737,1.774-.393.951-.784,1.9-1.188,2.883.61,0,1.18-.012,1.749.006a.317.317,0,0,0,.354-.252c.248-.629.513-1.251.771-1.876q1.42-3.436,2.839-6.873c.109-.265.239-.5.572-.5a.9.9,0,0,1,.579.316q4.69,3.989,9.379,7.979a5.563,5.563,0,0,0,1.436,1.147,5.686,5.686,0,0,0,1.84.052c.4,0,.791,0,1.266,0l-2.217-1.94q-1.518-1.328-3.036-2.656c-.331-.29-.384-.565-.177-.834a.647.647,0,0,1,.576-.211q3.5,0,7,0h3.84m-23.6,5.617h12.856a2.361,2.361,0,0,1-.2-.126q-4.563-3.882-9.122-7.77c-.218-.187-.251-.064-.322.109q-1.078,2.632-2.164,5.261c-.346.84-.7,1.68-1.047,2.527m25.931.022c-.6-1.461-1.19-2.87-1.759-4.286a.394.394,0,0,0-.443-.285c-3.116.009-6.231.005-9.347.008-.088,0-.185-.037-.275.037a.543.543,0,0,0,.063.081q2.47,2.161,4.938,4.323a.443.443,0,0,0,.315.125c2.152,0,4.3,0,6.508,0M1008.56,23.941c-.891,0-1.733,0-2.576,0-.344,0-.759-.107-1.015.046-.272.163-.308.615-.446.941-.306.728-.606,1.458-.922,2.22,1.189,0,2.331,0,3.472,0,.182,0,.209-.117.257-.234q.326-.789.651-1.579l.578-1.4" transform="translate(-2686.266 -944.608)" fill="#22babb"/><path d="M1153.153,84.513a4.953,4.953,0,0,1-4.424-7.1c.174-.363.439-.5.735-.379a.562.562,0,0,1,.239.816,3.868,3.868,0,0,0,5.475,5.016,3.894,3.894,0,0,0,1.249-5.346,3.824,3.824,0,0,0-5.209-1.3c-.082.048-.162.1-.247.141a.523.523,0,0,1-.745-.171.532.532,0,0,1,.194-.744,4.793,4.793,0,0,1,2.005-.784,4.952,4.952,0,1,1,.728,9.854" transform="translate(-2822.378 -1012.407)" fill="#22babb"/></g></g></svg>