<svg xmlns="http://www.w3.org/2000/svg" xmlns:xlink="http://www.w3.org/1999/xlink" width="36.644" height="36.578" viewBox="0 0 36.644 36.578"><defs><clipPath id="a"><rect width="36.644" height="36.578" fill="none"/></clipPath></defs><g clip-path="url(#a)"><g transform="translate(1635.903 944.476)"><path d="M1599.481,36.577a1.174,1.174,0,0,0-.6-.141,11.948,11.948,0,0,1-6.005-2.689c-.466-.388-.9-.816-1.329-1.244q-6.122-6.1-12.24-12.208a12.624,12.624,0,0,1-3.06-4.669,12.64,12.64,0,0,1-.661-2.8c-.01-.084.043-.2-.079-.248V10.292c.136-.153.1-.353.127-.528a12.2,12.2,0,0,1,2.524-5.854q.919-1.185,1.855-2.358a3.69,3.69,0,0,1,5.761-.321q2.7,2.687,5.389,5.379a3.686,3.686,0,0,1-.013,5.458c-.539.539-1.083,1.074-1.619,1.617a1.508,1.508,0,0,0,0,2.3q3.295,3.3,6.6,6.591a1.52,1.52,0,0,0,2.332-.02c.56-.553,1.111-1.114,1.671-1.665a3.7,3.7,0,0,1,5.34,0q2.769,2.741,5.518,5.5a3.677,3.677,0,0,1,1.1,2.038c0,.026.042.047.064.07V29.72c-.056.012-.067.054-.077.1a3.956,3.956,0,0,1-1.625,2.385c-.724.54-1.425,1.11-2.136,1.667a12.385,12.385,0,0,1-5.2,2.449,9.966,9.966,0,0,0-1.409.253Zm7.925-3.816a3.166,3.166,0,0,1-.355-.26q-1.826-1.814-3.645-3.635a2.5,2.5,0,0,1-.282-.32.7.7,0,0,1,.98-.969,2.554,2.554,0,0,1,.32.283q1.925,1.917,3.85,3.833c.078.078.148.276.307.144a8.883,8.883,0,0,0,1.7-1.461,2.212,2.212,0,0,0-.344-3q-2.714-2.72-5.439-5.429c-.084-.084-.175-.161-.267-.237a2.17,2.17,0,0,0-2.849,0c-.67.589-1.283,1.243-1.921,1.867a2.944,2.944,0,0,1-4.333.025q-3.346-3.3-6.653-6.641a2.831,2.831,0,0,1-.667-3.245.424.424,0,0,0-.112-.548q-2.389-2.362-4.762-4.742c-.474-.473-.54-.861-.208-1.2s.75-.281,1.232.2q2.353,2.348,4.7,4.7c.165.166.253.17.412,0,.34-.366.706-.709,1.058-1.065a2.26,2.26,0,0,0-.012-3.46q-2.679-2.68-5.364-5.353a2.27,2.27,0,0,0-3.639.216q-.9,1.135-1.79,2.272a10.555,10.555,0,0,0-2.38,6.472,10.513,10.513,0,0,0,3.2,7.9q6.416,6.424,12.851,12.829a10.754,10.754,0,0,0,14.406.825" transform="translate(-3211.408 -944.475)" fill="#22babb"/><path d="M1613.916,103.02a7.6,7.6,0,0,1,.286-1.98.7.7,0,0,1,1.37.276,1.928,1.928,0,0,1-.042.318,6.558,6.558,0,0,0,.567,4.569,7.25,7.25,0,0,0,1.289,1.742c.107.112.222.216.327.329a.722.722,0,0,1,.058,1.078.732.732,0,0,1-1.054-.058,9.74,9.74,0,0,1-1.116-1.2,8.267,8.267,0,0,1-1.686-5.069" transform="translate(-3246.382 -1036.003)" fill="#22babb"/><path d="M1669.152,210.589a.716.716,0,0,1-.722.682.743.743,0,0,1-.695-.72.724.724,0,0,1,.751-.692.7.7,0,0,1,.666.73" transform="translate(-3295.384 -1135.553)" fill="#22babb"/><path d="M1862.2,285.556a.705.705,0,0,1,.717.681.705.705,0,1,1-.717-.681" transform="translate(-3471.815 -1204.476)" fill="#22babb"/></g></g></svg>