<svg xmlns="http://www.w3.org/2000/svg" xmlns:xlink="http://www.w3.org/1999/xlink" width="26.352" height="35.476" viewBox="0 0 26.352 35.476"><defs><clipPath id="a"><rect width="26.352" height="35.476" fill="none"/></clipPath></defs><g clip-path="url(#a)"><g transform="translate(0 0)"><path d="M587.563,271.8c-.045-.031-.089-.064-.135-.094a.69.69,0,0,1,.367-1.288c.785-.007,1.569,0,2.354,0h6.609c.009-.151-.1-.222-.158-.309-3.083-4.369-6.185-8.725-9.247-13.109a12.382,12.382,0,0,1-2.214-9.214,12.75,12.75,0,0,1,9.113-10.82,13.064,13.064,0,0,1,16.082,7.6,12.882,12.882,0,0,1-1.532,12.671c-.676.976-1.37,1.939-2.055,2.908a.694.694,0,0,1-.736.34.672.672,0,0,1-.554-.55.774.774,0,0,1,.193-.639c.672-.95,1.338-1.905,2.017-2.851a11.767,11.767,0,1,0-21-9.461,11.534,11.534,0,0,0,1.952,9.421l9.272,13.133c.265.375.263.376.538-.013q1.734-2.458,3.467-4.916a.743.743,0,0,1,.746-.4.694.694,0,0,1,.419,1.147c-.644.927-1.3,1.847-1.952,2.769l-1.585,2.245a.658.658,0,0,0,.374.041q4.275,0,8.551,0a.707.707,0,0,1,.736.457.639.639,0,0,1-.166.728,2.144,2.144,0,0,1-.27.2Z" transform="translate(-584.986 -236.323)" fill="#22babb"/><path d="M666.206,311.419a6.232,6.232,0,1,1-6.228,6.227A6.24,6.24,0,0,1,666.206,311.419Zm4.85,6.239a4.846,4.846,0,1,0-4.845,4.839A4.856,4.856,0,0,0,671.056,317.658Z" transform="translate(-653.039 -304.47)" fill="#22babb"/><path d="M788.59,511.17a.691.691,0,1,1-.677-.687A.7.7,0,0,1,788.59,511.17Z" transform="translate(-768.497 -485.116)" fill="#22babb"/></g></g></svg>