<svg xmlns="http://www.w3.org/2000/svg" xmlns:xlink="http://www.w3.org/1999/xlink" width="107.7" height="100" viewBox="0 0 107.7 100"><defs><clipPath id="a"><rect width="107.7" height="100" fill="none"/></clipPath><clipPath id="b"><rect width="107.7" height="100" fill="#fff"/></clipPath></defs><g clip-path="url(#a)"><g transform="translate(-1338.497 -2041)"><g transform="translate(1338.497 2041)" clip-path="url(#b)"><path d="M53.949,0C61.457,0,68.964-.008,76.471.01A7.689,7.689,0,0,1,84.32,5.818,10.2,10.2,0,0,1,84.6,8.6c0,6.944.037,13.889-.031,20.833-.012,1.2.351,1.393,1.439,1.38,5.067-.058,10.136.063,15.2-.053,4.226-.1,6.532,2.989,6.491,6.52q-.149,12.724,0,25.45c.04,3.5-2.246,6.6-6.507,6.506-5.14-.118-10.284,0-15.426-.05-.923-.008-1.192.224-1.187,1.167.039,7.094.017,14.189.023,21.284,0,3.351-1.278,5.954-4.339,7.533A8.6,8.6,0,0,1,76.23,100q-22.353,0-44.705,0c-5.26,0-8.449-3.2-8.454-8.5-.009-10.21-.02-20.421.024-30.631,0-1.054-.3-1.271-1.294-1.261-5.067.051-10.134.027-15.2.023-4.284,0-6.6-2.323-6.6-6.611Q0,42.267,0,31.513C0,27.354,2.334,25.006,6.464,25c5.217,0,10.435-.02,15.652.019.8.006.976-.223.971-.994-.036-5.217-.031-10.436-.014-15.653.013-4.123,2.066-7.021,5.683-8.057A10.024,10.024,0,0,1,31.54,0q11.2.008,22.409,0M80.736,69.633c-1.182.779-2.146,1.41-3.1,2.048-2.246,1.5-4.5,2.98-6.728,4.5a2.361,2.361,0,0,1-2.595.471c-1-.522-1.031-1.474-1.007-2.441.015-.6.031-1.2,0-1.8-.06-1.035.457-2.369-.217-3.023-.616-.6-1.934-.21-2.934-.163-4.26.2-6.548-2.992-6.509-6.489q.144-12.723,0-25.449c-.042-3.543,2.274-6.619,6.488-6.523,5.1.116,10.209,0,15.313.048.976.009,1.358-.165,1.327-1.26-.085-3.038-.078-6.081,0-9.12.026-1.025-.29-1.217-1.253-1.215q-21.957.048-43.915.022c-2.515,0-5.03.033-7.544-.018-.845-.017-1.21.156-1.142,1.091a27.011,27.011,0,0,1,0,3.6c-.053.862.184,1.119,1.084,1.111C33.177,24.978,38.357,25,43.536,25c4.13,0,6.456,2.351,6.462,6.509q0,2.083,0,4.167c0,5.893.009,11.786,0,17.679-.008,3.8-2.363,6.188-6.144,6.27a18.689,18.689,0,0,1-2.363-.014c-.969-.1-1.2.275-1.145,1.19.082,1.309,0,2.627.029,3.94a2.221,2.221,0,0,1-1.036,2.311,2.273,2.273,0,0,1-2.5-.443q-4.485-3-8.982-5.984c-.257-.17-.472-.49-.922-.382v.892c0,6.156.02,12.312-.022,18.468-.007.932.235,1.178,1.172,1.177q25.73-.044,51.459-.021c.188,0,.377-.017.563,0,.5.051.642-.188.64-.66-.013-3.412-.007-6.824-.007-10.472m-9.58,1.554a1.784,1.784,0,0,0,1.064-.515c2.283-1.508,4.566-3.017,6.822-4.564a4.236,4.236,0,0,1,2.526-.757q9.911.033,19.823.008c1.668,0,2.422-.674,2.425-2.248q.025-13.122,0-26.244a1.96,1.96,0,0,0-2.226-2.218q-18.922-.017-37.844,0a1.96,1.96,0,0,0-2.226,2.217q-.025,13.122,0,26.244c0,1.542.743,2.229,2.313,2.247,1.614.018,3.229-.009,4.843.008,1.744.018,2.457.733,2.479,2.465.014,1.111,0,2.221,0,3.355M36.513,61.769c0-.765,0-1.326,0-1.888,0-.6-.015-1.2,0-1.8.046-1.561.726-2.263,2.278-2.292s3.076,0,4.615-.008c2.123-.007,2.748-.63,2.748-2.75q0-10.694,0-21.387c0-2.194-.609-2.8-2.817-2.8H6.646c-2.2,0-2.8.609-2.8,2.813q0,10.638,0,21.275c0,2.271.581,2.849,2.875,2.849,6.378,0,12.757.017,19.135-.015a4.991,4.991,0,0,1,3.039.9c2.452,1.706,4.961,3.329,7.621,5.1M53.955,84.621q-13.008,0-26.016-.015c-.742,0-1.052.119-1.027.959.063,2.138-.006,4.279.028,6.419a3.869,3.869,0,0,0,4.249,4.167q22.637.014,45.273,0c2.712,0,4.235-1.534,4.267-4.264.024-2.064-.047-4.131.029-6.194.034-.92-.274-1.093-1.127-1.09-8.559.031-17.118.019-25.677.019m-.122-69.237c8.635,0,17.269-.009,25.9.016.754,0,1.045-.139,1.02-.968-.063-2.063-.008-4.129-.024-6.194-.021-2.879-1.518-4.387-4.374-4.388q-22.525-.008-45.051,0c-2.856,0-4.354,1.509-4.375,4.387-.015,2.027.051,4.057-.027,6.081-.036.933.294,1.086,1.135,1.083,8.6-.029,17.194-.018,25.792-.018" transform="translate(0 0)" fill="#fff"/><path d="M47.262,137.905c-4.73,0-9.46-.032-14.189.026-.972.012-1.16-.276-1.14-1.182.058-2.695.017-2.7,2.662-2.7,8.972,0,17.943.014,26.914-.022.906,0,1.219.176,1.2,1.144-.059,2.729-.014,2.73-2.72,2.73Z" transform="translate(-22.319 -93.682)" fill="#fff"/><path d="M43.505,163.5c-3.524,0-7.048-.026-10.572.019-.807.01-.988-.242-.984-1.01.017-2.871-.011-2.871,2.814-2.871,6.373,0,12.747.013,19.12-.016.811,0,1.259.092,1.143,1.065-.107.887.284,2.093-.169,2.61-.536.611-1.765.183-2.691.192-2.886.028-5.773.01-8.66.01" transform="translate(-22.331 -111.57)" fill="#fff"/><path d="M79.68,112.1c-2.813,0-5.627-.027-8.44.017-.817.013-1.236-.113-1.122-1.063.106-.884-.277-2.084.176-2.6.536-.613,1.76-.187,2.682-.191,5.1-.022,10.2.007,15.3-.029.795-.005,1.19.122,1.068,1.019-.125.916.395,2.144-.207,2.683-.508.455-1.7.159-2.6.163-2.288.011-4.576,0-6.865,0" transform="translate(-48.973 -75.573)" fill="#fff"/><path d="M48.635,110.555c0,1.849,0,1.849-1.885,1.849-1.957,0-1.957,0-1.957-1.992,0-1.859,0-1.859,1.877-1.859,1.965,0,1.965,0,1.965,2" transform="translate(-31.308 -75.873)" fill="#fff"/><path d="M174.351,297.7c-1.949,0-1.949,0-1.949-1.917,0-1.934,0-1.934,1.916-1.934,1.95,0,1.95,0,1.95,1.9,0,1.951,0,1.951-1.916,1.951" transform="translate(-120.5 -205.382)" fill="#fff"/></g></g></g></svg>