<svg xmlns="http://www.w3.org/2000/svg" xmlns:xlink="http://www.w3.org/1999/xlink" width="82.95" height="100" viewBox="0 0 82.95 100"><defs><clipPath id="a"><rect width="82.95" height="100" fill="none"/></clipPath><clipPath id="b"><rect width="82.95" height="100" fill="#22babb"/></clipPath></defs><g clip-path="url(#a)"><g transform="translate(-461.299 -2041)"><g transform="translate(461.299 2041)" clip-path="url(#b)"><path d="M1.826,100A2.888,2.888,0,0,1,.006,96.9c.085-1.656.014-3.319.021-4.979.009-2.035.865-2.883,2.927-2.883q21.727,0,43.455.021c.922,0,1.237-.178,1.171-1.147a38.731,38.731,0,0,1-.007-4.2c.027-.675-.218-.786-.824-.784q-8.642.032-17.284.007a5.424,5.424,0,0,1-1.352-.13,1.775,1.775,0,0,1-1.268-1.859,1.823,1.823,0,0,1,1.547-1.645,7.445,7.445,0,0,1,.975-.023c5.762,0,11.523-.014,17.284.016.7,0,.968-.123.925-.889-.072-1.265-.039-2.538-.015-3.807a2.449,2.449,0,0,1,2.613-2.651q5.321-.051,10.644,0A2.407,2.407,0,0,1,63.41,74.6c.025,1.3.029,2.6,0,3.905-.015.555.073.8.726.793,3.19-.037,6.38-.021,9.57-.011.432,0,.728,0,.722-.593-.077-7.908.242-15.823-.142-23.723a22.362,22.362,0,0,0-18.107-20.4c-2.508-.452-2.508-.452-2.508,2.058,0,4.98-.025,9.96.013,14.939.013,1.626-.327,2.925-2.152,3.287-.415.082-.282.372-.284.6-.011,1.334,0,2.669-.008,4-.015,1.723-.909,2.728-2.617,2.7-.959-.013-1.139.334-1.072,1.164.063.776.025,1.561.011,2.342a2.381,2.381,0,0,1-2.421,2.615q-3.659.1-7.323,0a2.375,2.375,0,0,1-2.418-2.616c-.015-.911-.027-1.824.006-2.734.019-.514-.084-.732-.678-.755-2.322-.086-3.009-.849-3.01-3.212,0-1.172-.014-2.344.008-3.515.007-.378-.08-.524-.487-.643a2.368,2.368,0,0,1-1.942-2.655q-.014-16.795,0-33.589a2.457,2.457,0,0,1,2.726-2.717c.912-.01,1.824-.03,2.734.009.525.022.658-.165.648-.668q-.045-2.392,0-4.784c.011-.519-.154-.641-.658-.655-2.306-.067-3.031-.85-3.032-3.186,0-1.3-.013-2.6,0-3.906A2.439,2.439,0,0,1,34.311.012q7.177-.023,14.355,0a2.422,2.422,0,0,1,2.565,2.579c.023,1.5.018,2.995,0,4.491a2.4,2.4,0,0,1-2.667,2.654c-.929-.038-1.061.294-1.025,1.093a40.512,40.512,0,0,1,0,4.1c-.046.814.254.988.983.934.777-.058,1.561-.018,2.342-.012A2.483,2.483,0,0,1,53.657,18.6c.02,3.678.032,7.356-.013,11.034-.009.782.253.976.979,1.034,11.145.9,21.124,10.123,22.991,21.194a31.3,31.3,0,0,1,.432,5.243q-.009,11.229,0,22.458c0,2.658-.737,3.383-3.438,3.383-3.45,0-6.9.019-10.351-.016-.692-.007-.88.2-.857.874.05,1.463.053,2.93,0,4.393-.026.7.208.859.876.855,5.175-.026,10.351-.015,15.527-.014,2.331,0,3.118.778,3.122,3.081,0,1.595-.063,3.193.019,4.784a2.9,2.9,0,0,1-1.818,3.1Zm31.1-64.683c0,5.013.013,10.025-.015,15.038,0,.671.157.876.853.872q7.715-.045,15.429,0c.7,0,.854-.2.853-.872q-.032-14.989,0-29.977c0-.678-.163-.867-.853-.863q-7.715.045-15.429,0c-.69,0-.858.185-.854.863.029,4.98.016,9.96.016,14.94m8.556,61.006q17.673,0,35.345-.008c.8,0,1.87.364,2.336-.17.393-.45.045-1.5.145-2.264.131-1.01-.247-1.215-1.218-1.214Q42.2,92.712,6.322,92.7c-.864,0-2.015-.4-2.513.2-.423.5-.069,1.619-.162,2.453-.095.85.239.994,1.022.992q18.4-.038,36.81-.018m18.3-13.98c0-2.014-.019-4.028.012-6.042.008-.556-.158-.717-.713-.711q-3.606.042-7.212,0c-.525-.006-.646.16-.644.66q.027,6.042,0,12.085c0,.535.121.724.692.716q3.557-.048,7.115,0c.6.008.777-.16.766-.764-.037-1.981-.014-3.963-.014-5.945M41.558,58.56c1.788,0,3.577-.01,5.365.007.428,0,.663-.066.643-.573-.034-.877-.027-1.756,0-2.633.012-.4-.156-.482-.514-.481q-5.56.014-11.12,0c-.43,0-.56.129-.545.552.03.812.042,1.627,0,2.437-.031.561.165.715.713.705,1.82-.031,3.641-.012,5.462-.012M41.476,6.085h4.587c1.5,0,1.45,0,1.516-1.541.034-.784-.25-.883-.931-.875-3.22.034-6.441.015-9.662.015-1.617,0-1.576,0-1.611,1.64-.015.687.239.784.831.773,1.756-.034,3.513-.012,5.27-.012M39.04,12.636c0,.976.021,1.79-.008,2.6-.016.445.084.637.585.623,1.235-.036,2.472-.034,3.707,0,.484.013.607-.15.6-.612-.029-1.2-.009-2.406-.009-3.609,0-1.873,0-1.88-1.845-1.871-.971,0-2.27-.336-2.827.154-.635.558-.109,1.887-.2,2.714m2.431,52.007h.778c1.74,0,1.712,0,1.679-1.768-.011-.586-.226-.7-.747-.687a26.146,26.146,0,0,1-3.111-.011c-.9-.079-1.093.245-1.052,1.08.068,1.384.017,1.387,1.382,1.387h1.07" transform="translate(0 0)" fill="#22babb"/></g></g></g></svg>