<svg xmlns="http://www.w3.org/2000/svg" xmlns:xlink="http://www.w3.org/1999/xlink" width="93.311" height="100" viewBox="0 0 93.311 100"><defs><clipPath id="a"><rect width="93.311" height="100" fill="none"/></clipPath><clipPath id="b"><rect width="93.311" height="100" fill="#fff"/></clipPath></defs><g clip-path="url(#a)"><g transform="translate(-901.428 -2041)"><g transform="translate(901.428 2041)" clip-path="url(#b)"><path d="M41.577,100q-16.3,0-32.6,0C3.49,100,0,96.517,0,91.041Q0,70.005,0,48.97C0,43.482,3.479,40.008,8.968,40c1.146,0,2.3-.06,3.435.02.805.057.952-.212.949-.969-.03-7.914-.018-15.829-.018-23.743,0-2.291-.015-4.582,0-6.873A8.3,8.3,0,0,1,21.794.016C33.841,0,45.887.014,57.933,0a2.437,2.437,0,0,1,1.852.756Q66.18,7.175,72.6,13.567a2.546,2.546,0,0,1,.741,1.964c-.016,7.81.006,15.621-.032,23.431,0,.865.2,1.078,1.065,1.067,4.061-.052,8.123-.037,12.184-.019a6.642,6.642,0,0,1,6.673,5.559,4.715,4.715,0,0,1-.053,1.954q-4.864,21.854-9.694,43.715c-.186.843-.227,1.721-.446,2.554a8.306,8.306,0,0,1-8.239,6.2q-16.611.018-33.222,0m-.016-3.334q16.4,0,32.807,0c3.619,0,5.628-1.988,5.629-5.571Q80,75,80,58.913c0-3.589-2.005-5.575-5.623-5.575q-20.153,0-40.305.018A3.178,3.178,0,0,1,31.6,52.317c-2.719-2.778-5.5-5.5-8.226-8.269a2.158,2.158,0,0,0-1.708-.729c-4.235.037-8.47.017-12.706.019-3.617,0-5.621,1.987-5.622,5.576q0,21.036,0,42.072c0,3.731,1.965,5.676,5.732,5.677H41.561M51.906,50q8.593,0,17.187,0c.454,0,.925.175.923-.66q-.043-15.988,0-31.975c0-.65-.249-.714-.785-.7-1.492.029-2.986.037-4.478,0a8.28,8.28,0,0,1-7.909-6.731,35,35,0,0,1-.163-5.818c-.011-.53-.05-.788-.7-.786-11.458.022-22.916,0-34.374.027a4.907,4.907,0,0,0-4.921,4.9c-.027,10.346-.006,20.692-.027,31.037,0,.617.2.734.764.724,1.77-.033,3.542.023,5.312-.027a2.779,2.779,0,0,1,2.211.907c2.8,2.844,5.65,5.643,8.452,8.487a1.939,1.939,0,0,0,1.537.634C40.588,49.993,46.247,50,51.906,50M83.331,75.677l.13.016c.075-.253.165-.5.222-.758Q86.745,61.143,89.8,47.35a3.135,3.135,0,0,0-3.031-3.994c-4.269-.051-8.539-.008-12.808-.028-.5,0-.647.136-.638.637.03,1.631.074,3.266-.012,4.892-.05.953.234,1.177,1.172,1.17,5.336-.04,8.845,3.5,8.85,8.85q.006,6.247,0,12.495ZM67.151,13.315,60,6.165c-.56,5.719,2.4,7.693,7.148,7.15" transform="translate(0 0)" fill="#fff"/><path d="M103.748,83.772c6.318,0,12.637.022,18.955-.025.9-.007,1.065.258,1.043,1.089-.059,2.268-.019,2.269-2.337,2.269q-18.279,0-36.556.018c-.839,0-1.2-.09-1.156-1.082.093-2.265.028-2.268,2.346-2.268Z" transform="translate(-60.393 -60.432)" fill="#fff"/><path d="M103.754,111.056c-6.353,0-12.706-.015-19.059.02-.774,0-.978-.173-.962-.957.048-2.4.01-2.4,2.419-2.4q18.278,0,36.556-.022c.862,0,1.094.19,1.069,1.063-.067,2.29-.02,2.291-2.317,2.291Z" transform="translate(-60.421 -77.717)" fill="#fff"/><path d="M98.649,39.226c-4.652,0-9.3-.02-13.955.021-.777.007-.977-.177-.961-.959.048-2.394.01-2.394,2.42-2.394,8.852,0,17.7.014,26.557-.023.864,0,1.093.194,1.067,1.065-.067,2.289-.02,2.29-2.317,2.29Z" transform="translate(-60.421 -25.884)" fill="#fff"/><path d="M98.65,63.169c-4.652,0-9.3-.021-13.955.02-.776.007-.977-.176-.962-.958.048-2.394.01-2.395,2.42-2.395,8.852,0,17.7.014,26.557-.022.864,0,1.093.194,1.068,1.065-.067,2.289-.02,2.29-2.317,2.29Z" transform="translate(-60.421 -43.162)" fill="#fff"/></g></g></g></svg>