<svg xmlns="http://www.w3.org/2000/svg" xmlns:xlink="http://www.w3.org/1999/xlink" width="136.652" height="126.883" viewBox="0 0 136.652 126.883"><defs><clipPath id="clip-path"><rect width="136.652" height="126.883" fill="none"></rect></clipPath><clipPath id="clip-path-2"><rect id="Rectangle_267" data-name="Rectangle 267" width="136.652" height="126.883" fill="#22babb"></rect></clipPath></defs><g id="Grille_de_r&#xE9;p&#xE9;tition_14" data-name="Grille de r&#xE9;p&#xE9;tition 14" clip-path="url(#clip-path)"><g id="Groupe_312" data-name="Groupe 312" clip-path="url(#clip-path-2)"><path id="Trac&#xE9;_476" data-name="Trac&#xE9; 476" d="M68.452.006C77.978.006,87.5-.01,97.029.013c5.007.012,8.652,2.736,9.959,7.37a12.945,12.945,0,0,1,.354,3.535c0,8.811.047,17.623-.039,26.433-.015,1.517.445,1.767,1.826,1.751,6.429-.074,12.861.079,19.288-.067,5.361-.123,8.288,3.792,8.236,8.273q-.189,16.144,0,32.291c.05,4.437-2.85,8.378-8.256,8.255-6.522-.15-13.049-.006-19.573-.063-1.171-.01-1.512.284-1.506,1.48.05,9,.022,18,.029,27.005,0,4.251-1.621,7.554-5.505,9.559a10.906,10.906,0,0,1-5.118,1.047q-28.361,0-56.723,0c-6.674,0-10.721-4.06-10.727-10.78-.012-12.955-.026-25.91.031-38.865.006-1.338-.378-1.613-1.642-1.6-6.429.065-12.859.034-19.288.029C2.937,75.659,0,72.716,0,67.275Q0,53.63,0,39.984c0-5.277,2.959-8.255,8.2-8.26,6.62-.006,13.24-.025,19.86.024,1.018.008,1.238-.283,1.232-1.262-.045-6.62-.039-13.241-.018-19.861C29.291,5.393,31.9,1.717,36.486.4A12.719,12.719,0,0,1,40.019,0q14.217.01,28.433,0m33.988,88.346c-1.5.989-2.723,1.789-3.939,2.6-2.85,1.9-5.709,3.781-8.537,5.71-1.034.7-2.062,1.242-3.292.6-1.267-.663-1.308-1.871-1.278-3.1.019-.761.04-1.526,0-2.285-.076-1.314.58-3.006-.275-3.835-.781-.757-2.454-.266-3.723-.206-5.405.256-8.309-3.8-8.258-8.233q.183-16.143,0-32.29c-.053-4.5,2.885-8.4,8.232-8.276,6.473.147,12.953,0,19.43.062,1.239.011,1.723-.209,1.684-1.6-.107-3.855-.1-7.716,0-11.571.033-1.3-.367-1.544-1.589-1.542q-27.86.061-55.72.028c-3.191,0-6.383.042-9.572-.023-1.073-.022-1.535.2-1.45,1.385a34.272,34.272,0,0,1,0,4.568c-.068,1.094.234,1.419,1.376,1.409,6.572-.06,13.144-.034,19.716-.028,5.24,0,8.192,2.983,8.2,8.259q0,2.643,0,5.287c0,7.477.012,14.955,0,22.432-.011,4.818-3,7.852-7.8,7.956a23.713,23.713,0,0,1-3-.018c-1.23-.131-1.526.349-1.453,1.51.1,1.66,0,3.333.036,5,.029,1.208-.131,2.3-1.314,2.932s-2.193.095-3.173-.562q-5.691-3.807-11.4-7.593c-.327-.216-.6-.621-1.17-.484v1.132c0,7.811.026,15.622-.028,23.432-.008,1.183.3,1.5,1.487,1.493q32.647-.056,65.293-.027c.238,0,.479-.021.714,0,.636.064.814-.238.812-.837-.016-4.329-.009-8.658-.009-13.287M90.285,90.323a2.263,2.263,0,0,0,1.35-.654c2.9-1.913,5.793-3.827,8.656-5.79a5.375,5.375,0,0,1,3.206-.96q12.576.041,25.152.01c2.117,0,3.073-.855,3.077-2.852q.032-16.649,0-33.3a2.487,2.487,0,0,0-2.824-2.814q-24.009-.021-48.018,0a2.487,2.487,0,0,0-2.824,2.813q-.032,16.65,0,33.3c0,1.956.943,2.828,2.934,2.851,2.048.023,4.1-.011,6.145.01,2.213.023,3.117.93,3.145,3.128.018,1.409,0,2.819,0,4.258M46.329,78.374c0-.971,0-1.683,0-2.4,0-.762-.019-1.524,0-2.285.059-1.981.921-2.871,2.89-2.909,1.951-.037,3.9,0,5.855-.01,2.694-.008,3.486-.8,3.487-3.49q0-13.569,0-27.137c0-2.783-.773-3.551-3.574-3.551q-23.28,0-46.559,0c-2.787,0-3.556.772-3.556,3.569q0,13.5,0,26.994c0,2.882.738,3.614,3.648,3.615,8.093,0,16.186.021,24.279-.019A6.333,6.333,0,0,1,36.659,71.9c3.111,2.164,6.295,4.224,9.67,6.472m22.13,29q-16.5,0-33.009-.019c-.942,0-1.335.151-1.3,1.216.08,2.713-.008,5.43.036,8.145C34.237,120.07,36.2,122,39.574,122q28.722.017,57.444,0c3.44,0,5.373-1.946,5.415-5.411.031-2.619-.06-5.242.037-7.858.043-1.167-.348-1.387-1.43-1.384-10.86.039-21.72.024-32.58.024M68.305,19.52c10.956,0,21.912-.012,32.868.021.956,0,1.326-.176,1.295-1.228-.079-2.618-.011-5.239-.03-7.859-.027-3.653-1.926-5.567-5.549-5.568q-28.581-.01-57.161,0c-3.624,0-5.524,1.914-5.552,5.566-.019,2.572.065,5.147-.035,7.716-.046,1.183.373,1.378,1.44,1.375,10.908-.037,21.817-.023,32.725-.023" transform="translate(0 0)" fill="#22babb"></path><path id="Trac&#xE9;_477" data-name="Trac&#xE9; 477" d="M51.383,138.946c-6,0-12-.04-18,.033-1.234.015-1.471-.351-1.447-1.5.074-3.419.022-3.42,3.377-3.42,11.383,0,22.766.018,34.149-.028,1.15,0,1.547.223,1.52,1.451-.075,3.462-.018,3.463-3.451,3.463Z" transform="translate(-19.734 -82.834)" fill="#22babb"></path><path id="Trac&#xE9;_478" data-name="Trac&#xE9; 478" d="M46.612,164.546c-4.471,0-8.943-.032-13.414.024-1.023.013-1.254-.307-1.248-1.281.021-3.643-.014-3.643,3.57-3.643,8.087,0,16.173.016,24.26-.02,1.029,0,1.6.117,1.45,1.351-.135,1.125.361,2.656-.215,3.312-.68.776-2.24.233-3.415.244-3.662.036-7.325.013-10.988.013" transform="translate(-19.746 -98.652)" fill="#22babb"></path><path id="Trac&#xE9;_479" data-name="Trac&#xE9; 479" d="M82.264,113.174c-3.57,0-7.14-.035-10.709.022-1.036.016-1.569-.143-1.424-1.349.134-1.122-.352-2.644.223-3.3.68-.778,2.233-.238,3.4-.243,6.473-.028,12.946.008,19.419-.036,1.008-.007,1.51.154,1.355,1.293-.159,1.162.5,2.72-.263,3.4-.644.577-2.163.2-3.295.207-2.9.014-5.806,0-8.71,0" transform="translate(-43.302 -66.822)" fill="#22babb"></path><path id="Trac&#xE9;_480" data-name="Trac&#xE9; 480" d="M49.668,111.093c0,2.347,0,2.347-2.391,2.347-2.484,0-2.484,0-2.484-2.527,0-2.359,0-2.359,2.382-2.359,2.493,0,2.493,0,2.493,2.54" transform="translate(-27.683 -67.088)" fill="#22babb"></path><path id="Trac&#xE9;_481" data-name="Trac&#xE9; 481" d="M174.875,298.73c-2.473,0-2.473,0-2.473-2.432,0-2.454,0-2.454,2.431-2.454,2.474,0,2.474,0,2.474,2.411,0,2.475,0,2.475-2.431,2.475" transform="translate(-106.548 -181.601)" fill="#22babb"></path></g></g></svg>