<svg xmlns="http://www.w3.org/2000/svg" xmlns:xlink="http://www.w3.org/1999/xlink" width="21.607" height="24.811" viewBox="0 0 21.607 24.811"><defs><clipPath id="clip-path"><rect width="21.607" height="24.811" fill="none"></rect></clipPath><clipPath id="clip-path-2"><rect id="Rectangle_141" data-name="Rectangle 141" width="21.607" height="24.811" fill="#22babb"></rect></clipPath></defs><g id="Grille_de_r&#xE9;p&#xE9;tition_12" data-name="Grille de r&#xE9;p&#xE9;tition 12" clip-path="url(#clip-path)"><g id="Groupe_207" data-name="Groupe 207" clip-path="url(#clip-path-2)"><path id="Trac&#xE9;_695" data-name="Trac&#xE9; 695" d="M18.023,0a2.22,2.22,0,0,0,.521.129,4.057,4.057,0,0,1-.434,7.944,3.93,3.93,0,0,1-3.428-1.135.223.223,0,0,0-.337-.041Q11.188,8.864,8.02,10.814a.21.21,0,0,0-.112.3,3.889,3.889,0,0,1,0,2.585c-.043.126-.034.188.09.265q3.2,1.97,6.386,3.958c.169.106.223,0,.31-.082a4.047,4.047,0,0,1,6.643,1.5,3.841,3.841,0,0,1-.862,4.17,3.816,3.816,0,0,1-4.091,1.1,3.92,3.92,0,0,1-2.85-3.2,3.746,3.746,0,0,1,.149-1.956c.049-.146.046-.217-.1-.306Q10.4,17.2,7.235,15.225c-.13-.081-.2-.064-.3.037a3.9,3.9,0,0,1-4.079,1A3.905,3.905,0,0,1,.078,13.135a4.061,4.061,0,0,1,3.5-4.764A4.012,4.012,0,0,1,6.944,9.544a.189.189,0,0,0,.283.032q3.18-1.978,6.365-3.946c.1-.063.154-.112.108-.244A4.052,4.052,0,0,1,16.958.042c.018,0,.032-.028.048-.042Zm-.487,23.311a2.575,2.575,0,1,0-2.579-2.557,2.574,2.574,0,0,0,2.579,2.557M17.518,1.484a2.575,2.575,0,1,0,2.588,2.55,2.568,2.568,0,0,0-2.588-2.55M1.492,12.408A2.575,2.575,0,1,0,4.044,9.825a2.569,2.569,0,0,0-2.552,2.584" transform="translate(0)" fill="#22babb"></path></g></g></svg>