<svg xmlns="http://www.w3.org/2000/svg" xmlns:xlink="http://www.w3.org/1999/xlink" width="242.151" height="105.75" viewBox="0 0 242.151 105.75"><defs><clipPath id="a"><rect width="242.151" height="105.75" fill="none"></rect></clipPath></defs><g clip-path="url(#a)"><g transform="translate(11410.105 12185.904)"><text transform="translate(-11398.002 -12087.154)" fill="#2c3359" font-size="32" font-family="ArialRoundedMTBold, Arial Rounded MT"><tspan x="0" y="0">Di</tspan><tspan y="0">g</tspan><tspan y="0">ital Lib</tspan><tspan y="0">r</tspan><tspan y="0">a</tspan><tspan y="0">r</tspan><tspan y="0">y</tspan></text><path d="M966.007,466.619a28.7,28.7,0,0,1,5.161-12.292c.573.31,1.1.62,1.656.89a14.083,14.083,0,0,0,4.809,1.176,20.241,20.241,0,0,0,9.393-.934c6.076-2.29,9.738-6.75,11.311-12.972a15.066,15.066,0,0,0-.668-9.869,7.981,7.981,0,0,0-2.936-3.528,3.564,3.564,0,0,0-1.244-.518c-.505-.1-.8.227-.736.743a2.308,2.308,0,0,0,.194.681,12.834,12.834,0,0,1,.148,10.023,14.19,14.19,0,0,1-2.524,4.515,4.913,4.913,0,0,1-.976.866c-.391.266-.594.146-.66-.328-.088-.632-.106-1.279-.256-1.9-1.151-4.741-3.9-8.046-8.786-9.085-1.606-.342-2.912-.707-3.584-2.3a11.416,11.416,0,0,0-19.832,3.343c-.057.153-.107.309-.162.463-.006.016-.023.028.033-.036l-7.152-1.653a27.474,27.474,0,1,1,16.809,32.709" transform="translate(-12171.182 -12589.4)" fill="#22babb"></path><path d="M1104.893,549.32a14.189,14.189,0,0,0-1.344-.772.651.651,0,0,0-.58.126.769.769,0,0,1-1.19.1,1.726,1.726,0,0,1-.57-1.633.974.974,0,0,1,1.124-.818,2.7,2.7,0,0,1,1.209.552,4.98,4.98,0,0,1,1.352,2.443" transform="translate(-12293.064 -12695.938)" fill="#22babb"></path><text transform="translate(-11410.105 -12125.904)" fill="#22babb" font-size="63" font-family="ArialRoundedMTBold, Arial Rounded MT"><tspan x="0" y="0">TEMB</tspan></text></g></g></svg>